<svg xmlns="http://www.w3.org/2000/svg" viewBox="0 0 800 220" width="800" height="220">
  <defs>
    <linearGradient id="bg" x1="0" y1="0" x2="0" y2="1">
      <stop offset="0%" stop-color="#0c4a6e" />
      <stop offset="100%" stop-color="#1e3a8a" />
    </linearGradient>
  </defs>

  <rect x="0" y="0" width="800" height="220" fill="url(#bg)" />

  <g fill="none" stroke="#A7C4D8" stroke-width="1.2" opacity="0.85">
    <path d="M -40 30 C 80 50, 140 10, 220 35 S 340 60, 400 25 S 520 5, 600 30 S 720 55, 840 35" />
    <path d="M -40 55 C 90 70, 160 30, 250 50 S 370 80, 430 40 S 560 20, 640 50 S 760 75, 840 55" />
    <path d="M -40 80 C 70 60, 150 100, 230 75 S 350 50, 420 90 S 540 110, 620 80 S 740 55, 840 80" />
    <path d="M -40 110 C 100 130, 170 85, 260 105 S 380 130, 450 95 S 570 75, 650 110 S 750 135, 840 115" />
    <path d="M -40 140 C 60 120, 160 160, 240 135 S 360 110, 430 150 S 550 170, 630 140 S 750 120, 840 145" />
    <path d="M -40 170 C 90 185, 150 150, 250 165 S 370 185, 430 160 S 560 140, 640 170 S 760 190, 840 170" />
    <path d="M -40 195 C 80 180, 170 210, 260 190 S 380 175, 450 200 S 570 215, 640 195 S 760 180, 840 200" />
  </g>
</svg>