<svg xmlns="http://www.w3.org/2000/svg" viewBox="0 0 800 220" width="800" height="220">
  <defs>
    <linearGradient id="bg" x1="0" y1="0" x2="0" y2="1">
      <stop offset="0%" stop-color="#0c4a6e" />
      <stop offset="100%" stop-color="#1e3a8a" />
    </linearGradient>
  </defs>

  <rect x="0" y="0" width="800" height="220" fill="url(#bg)" />
  <rect x="16" y="16" width="768" height="188" rx="12" fill="none" stroke="#A7C4D8" stroke-width="1.5" stroke-dasharray="3 5" />

  <g fill="none" stroke="#A7C4D8" stroke-width="1.2" stroke-dasharray="2 4" opacity="0.9">
    <path d="M -40 40 Q 100 10, 200 40 T 400 40 T 600 40 T 840 40" />
    <path d="M -40 65 Q 100 25, 200 65 T 400 65 T 600 65 T 840 65" />
    <path d="M -40 90 Q 100 50, 200 90 T 400 90 T 600 90 T 840 90" />
    <path d="M -40 115 Q 100 75, 200 115 T 400 115 T 600 115 T 840 115" />
  </g>

  <g fill="none" stroke="#A7C4D8" stroke-width="1.2" stroke-dasharray="2 4" opacity="0.6">
    <path d="M -40 145 Q 100 110, 200 145 T 400 145 T 600 145 T 840 145" />
    <path d="M -40 170 Q 100 130, 200 170 T 400 170 T 600 170 T 840 170" />
    <path d="M -40 195 Q 100 155, 200 195 T 400 195 T 600 195 T 840 195" />
  </g>
</svg>